<svg xmlns="http://www.w3.org/2000/svg" viewBox="0 0 500 500"><defs><linearGradient id="a" x1="10.78" y1="250" x2="489.22" y2="250" gradientUnits="userSpaceOnUse"><stop offset="0"/><stop offset="1" stop-color="#333"/></linearGradient></defs><path d="M367.95 128.7c-32.04-33.62-77.24-54.59-127.24-54.59-96.97 0-175.89 78.91-175.89 175.89 0 18.42 2.85 36.19 8.14 52.91C53.05 323.36-36.49 419.7 43.38 420.87c26.86.39 63.12-9.69 100.71-23.96 27.74 18.31 60.97 28.98 96.62 28.98 96.97 0 175.89-78.91 175.89-175.89 0-6.47-.34-12.85-1.03-19.14 30.1-24.57 58.01-54.31 69.67-86.27 26.34-72.13-85.31-29.37-117.28-15.88ZM81.6 324.93c10.4 22.01 25.23 41.52 43.35 57.37-61.36 14.97-99.46 9.28-43.35-57.37m159.11 73.38c-22.99 0-44.76-5.24-64.19-14.57 37.97-16.31 74.93-35.08 102.63-49.9 3.09-1.65.87-6.32-2.36-4.98-33.16 13.83-78.08 31.57-118.87 44.22-39.61-26.71-65.64-72.03-65.52-123.42.18-80.75 65.86-147.05 146.6-147.96 75.37-.85 138 54.56 148.46 126.83-20.63 20.4-42.21 39.76-57.01 52.69-2.49 2.17.26 6.09 3.15 4.48 14.4-8.01 34.44-19.92 55.41-34.72-.51 81.45-66.72 147.33-148.3 147.33m169.94-193.72a175.3 175.3 0 0 0-27.84-58.12c93.28-30.28 71.04 11.11 27.84 58.12m-86.43 57.03-122.71 70.84c-8.94 5.16-20.12-1.29-20.12-11.62V179.15c0-10.33 11.18-16.78 20.12-11.62l122.71 70.84c8.94 5.16 8.94 18.07 0 23.24Z" style="fill:url(#a)"/></svg>
